P3
60 60
255
124 71  208 162 54  194 159 115 212 98  137 223 87  131 211 142 132 219 167 118 230 162 90  229 143 92  226 85  102 223 73  114 208 90  103 197 128 77  212 136 76  205 160 110 196 147 134 203 83  132 207 52  116 199 66  118 207 141 117 206 183 124 215 139 133 213 143 120 217 148 121 227 133 136 232 125 131 227 119 98  220 60  91  220 78  110 218 191 75  187 202 90  185 127 110 215 66  93  207 130 97  199 149 165 214 114 206 210 146 132 208 117 104 220 122 142 192 182 126 197 155 116 223 98  159 213 106 210 179 167 219 174 206 172 200 173 163 231 154 184 217 115 217 196 166 242 210 153 193 219 102 102 213 92  33  202 109 44  200 72  0   206 84  72  196 189 117 179 169 185 200 129 231 217 187 222 206 201 184 200 
119 0   190 200 79  170 207 95  200 125 122 233 78  134 231 115 113 216 140 79  211 151 60  213 154 72  214 126 112 227 90  139 229 67  121 218 109 87  215 170 106 211 180 114 214 137 99  214 82  104 213 95  154 219 100 200 218 139 188 213 155 121 211 135 110 221 138 131 227 147 127 228 120 100 220 84  71  203 111 67  195 73  76  216 77  95  222 145 76  192 217 76  180 162 95  201 89  142 202 136 149 193 167 142 207 136 179 228 109 175 220 138 159 214 145 169 212 158 146 198 149 128 209 142 162 215 149 207 203 158 224 191 160 210 209 150 173 230 153 140 218 144 160 202 149 202 218 113 185 219 91  159 205 125 152 205 138 163 216 104 194 214 130 197 215 206 156 193 175 151 212 131 193 225 166 185 218 175 149 206 
159 160 193 211 150 185 202 102 200 151 107 234 81  110 228 46  75  193 119 29  179 167 54  194 174 81  204 154 105 224 95  122 229 49  120 222 113 132 210 171 145 213 175 118 223 143 103 222 109 122 217 107 140 221 130 186 223 116 205 223 106 147 211 130 121 217 131 116 231 119 96  221 83  58  193 62  16  172 116 17  176 125 36  197 78  55  209 154 105 183 221 126 181 178 103 208 108 129 216 121 147 204 156 128 209 151 129 233 105 160 224 125 157 218 158 137 228 154 146 219 149 153 214 148 151 221 162 152 222 167 177 212 127 206 215 108 177 226 128 139 221 132 104 218 126 117 223 116 147 222 114 185 207 132 192 204 141 179 218 115 200 220 118 195 216 205 144 197 188 148 206 121 148 229 120 116 234 174 87  218 
168 220 208 173 193 214 155 126 213 139 77  223 78  56  207 66  121 187 138 146 186 181 133 194 184 119 201 147 100 216 97  80  218 102 136 210 145 182 207 143 166 213 148 130 227 147 121 232 111 116 211 92  71  181 168 82  199 128 162 222 116 172 209 137 189 208 116 145 221 76  74  207 44  42  181 70  66  177 126 70  188 167 67  195 135 101 214 204 176 184 202 157 191 144 98  216 126 58  217 155 117 212 156 147 222 126 112 227 103 87  211 128 126 213 155 140 218 180 161 227 154 159 220 126 143 220 155 131 227 178 141 225 139 166 215 93  163 214 98  131 215 109 114 229 135 117 227 143 130 228 121 161 219 90  156 202 105 98  200 132 107 217 109 170 204 193 142 194 211 160 202 130 178 218 85  156 229 183 137 223 
150 177 222 116 187 230 136 163 225 96  107 212 71  61  205 137 165 215 158 202 217 159 179 205 170 145 199 119 123 209 101 83  218 158 145 208 149 183 218 125 154 220 128 139 230 128 125 237 91  97  213 96  110 160 192 122 171 167 98  211 143 156 205 151 209 209 108 186 208 60  143 194 57  113 193 90  107 208 139 125 214 175 135 215 186 142 217 239 212 196 155 145 210 44  68  211 163 85  200 207 139 208 162 156 227 69  119 220 108 107 194 183 133 196 149 183 203 178 190 218 145 174 214 125 153 211 150 139 219 166 131 223 154 127 215 75  149 205 95  127 188 142 160 219 159 182 230 151 162 233 106 126 224 0   95  199 103 83  182 194 136 199 176 224 201 151 191 208 198 129 217 139 178 206 112 198 208 176 189 220 
151 93  228 124 121 220 129 141 236 77  127 227 93  131 210 177 151 222 166 156 230 112 137 214 153 109 193 104 92  194 89  91  205 175 84  199 142 89  226 122 112 236 109 103 223 98  60  209 105 87  208 128 163 206 159 200 208 165 118 229 155 110 212 143 120 210 112 165 205 99  199 190 80  177 184 99  119 195 164 146 206 176 190 212 177 159 185 230 163 188 128 130 210 76  142 218 188 150 202 214 142 194 158 155 220 102 187 237 125 191 206 194 153 201 158 142 213 171 153 218 134 178 222 122 169 217 157 158 216 172 170 219 155 163 216 98  155 212 132 210 184 148 226 205 151 193 233 137 166 237 98  145 216 62  158 189 146 196 176 227 209 183 207 195 208 118 210 220 149 150 216 133 110 210 123 164 212 141 157 224 
112 143 236 133 108 213 119 113 220 90  119 239 120 164 234 157 153 229 149 143 235 107 141 229 99  85  205 118 69  205 118 117 220 172 110 217 155 87  221 121 95  228 85  113 221 74  97  201 140 67  194 188 94  218 121 109 236 105 90  232 155 93  219 165 63  216 121 101 221 81  148 207 80  181 184 114 189 185 175 170 204 224 171 201 195 222 180 186 193 198 133 171 208 144 213 203 154 210 198 188 162 198 199 148 210 106 177 225 95  150 209 179 145 206 177 134 220 169 138 225 133 150 217 126 154 213 183 168 218 199 173 223 104 134 219 105 127 214 154 151 215 109 161 220 111 163 227 140 169 222 126 192 214 115 211 197 165 221 182 197 223 198 151 163 212 133 178 195 114 181 216 130 133 218 112 115 226 106 116 214 
100 169 235 87  86  218 103 44  180 114 55  202 147 138 240 136 142 248 106 94  219 94  60  197 96  105 223 109 127 244 104 63  208 179 87  209 166 102 212 153 138 215 117 168 227 32  137 214 137 52  186 217 106 194 130 148 210 98  105 210 155 114 215 145 103 208 118 77  211 79  76  211 68  140 200 100 200 189 159 217 189 239 177 189 234 163 185 162 164 220 127 174 220 147 182 213 145 202 221 176 202 226 188 164 219 81  116 215 113 138 197 202 199 213 174 180 222 154 168 223 139 153 220 141 164 222 158 157 229 158 113 229 127 134 216 131 203 208 116 155 218 82  79  226 122 89  215 146 123 211 117 139 210 92  135 206 144 127 206 170 130 214 100 129 214 163 113 219 129 151 211 122 178 213 112 164 219 125 152 218 
90  115 237 46  91  186 77  14  167 196 68  187 171 95  201 120 83  209 89  65  197 105 102 186 128 135 208 82  107 221 98  103 193 213 149 192 182 130 212 158 129 221 125 162 224 81  192 208 148 179 186 223 124 189 207 170 198 124 230 210 130 142 213 122 107 209 100 84  209 107 96  209 123 147 201 136 205 194 161 239 196 189 219 193 208 169 196 184 169 217 146 198 220 132 180 219 147 179 225 155 170 228 131 119 222 98  99  207 152 164 192 177 146 219 154 130 224 162 142 218 137 144 224 130 136 230 143 147 232 137 153 230 131 122 221 157 139 213 100 163 204 82  161 208 132 134 218 144 109 230 107 94  223 43  75  201 118 45  185 185 80  191 129 154 225 166 172 232 133 155 203 118 138 217 98  119 218 101 99  219 
163 80  216 86  172 184 100 193 185 199 159 207 163 116 187 144 124 179 152 172 192 154 208 201 155 210 199 114 185 190 159 229 188 199 231 208 165 183 217 149 139 226 138 138 230 116 189 212 130 218 189 188 185 191 221 130 197 119 197 219 109 183 219 105 160 217 100 141 222 131 134 219 144 149 209 158 173 208 188 188 220 152 193 213 163 158 206 193 138 217 151 159 233 117 176 223 139 167 225 132 138 225 83  106 206 129 109 200 196 166 225 159 161 220 128 126 217 188 123 211 160 161 213 120 156 227 140 142 238 149 157 233 119 149 223 149 116 221 95  136 213 76  139 205 116 125 221 121 119 235 87  96  222 0   63  205 93  52  200 188 60  182 214 128 200 180 168 239 146 179 213 114 167 208 81  128 219 70  70  214 
211 152 200 135 192 209 109 221 188 160 177 199 165 128 208 166 152 199 167 185 205 167 189 219 165 181 210 130 191 193 150 217 198 162 195 208 133 172 203 119 131 210 123 93  228 131 131 233 129 183 223 132 183 213 169 92  208 142 108 217 96  144 223 90  140 208 80  124 210 129 108 212 155 114 213 150 118 214 143 95  205 138 109 193 181 123 208 192 123 220 174 142 228 129 172 227 113 155 229 117 126 223 113 150 206 143 177 206 195 160 221 144 156 211 114 165 221 187 137 217 171 144 205 135 196 222 140 204 238 148 161 232 119 136 221 106 103 218 71  83  204 71  87  199 155 110 222 130 143 226 63  123 209 46  96  215 124 151 229 203 193 190 232 137 188 178 126 233 158 147 232 110 172 206 68  142 203 55  112 202 
193 197 206 142 179 228 101 195 200 125 177 187 166 178 206 180 182 213 165 170 223 139 131 228 131 85  208 136 125 200 113 124 211 135 89  212 113 126 201 76  111 191 122 87  206 169 100 233 156 127 240 70  129 220 102 82  218 153 49  219 93  62  214 66  74  193 60  67  194 100 46  188 140 54  182 131 60  188 71  26  188 155 65  174 222 96  181 197 125 201 181 143 214 125 145 227 77  127 232 101 111 224 123 132 214 133 156 214 162 121 204 146 107 202 130 146 228 152 123 227 167 95  204 173 164 205 155 194 218 112 150 217 89  82  210 56  59  198 75  0   180 117 74  200 184 112 227 140 122 226 56  139 210 106 182 211 175 223 216 209 222 188 177 131 197 159 82  219 163 84  240 115 131 218 70  143 191 70  144 195 
148 181 219 120 162 233 86  154 220 132 175 205 151 198 198 164 182 210 153 154 227 102 126 222 65  68  196 145 16  192 126 52  211 131 75  219 139 109 217 103 154 204 138 163 200 174 136 219 148 89  225 66  78  204 122 113 212 134 102 221 94  83  212 62  105 199 58  72  186 45  0   170 119 0   153 164 29  157 153 87  185 181 138 191 214 92  171 188 95  176 173 105 194 123 99  221 81  112 232 90  116 223 102 86  215 109 41  222 142 53  213 177 77  208 150 85  232 94  85  230 158 70  202 195 55  189 160 88  194 51  102 194 40  51  198 86  102 200 109 127 190 147 111 213 167 109 234 128 79  227 116 148 212 157 226 200 182 241 195 173 172 201 103 118 202 141 113 205 157 89  225 131 99  232 96  155 207 82  161 196 
160 120 224 102 134 227 76  115 223 159 156 231 139 152 222 115 136 215 122 131 215 109 143 213 90  152 200 155 139 186 163 132 205 130 138 207 176 131 221 159 198 228 129 203 226 96  141 222 78  64  211 125 119 191 159 151 193 110 135 213 91  113 226 87  150 214 58  128 171 5   95  170 134 80  195 210 71  188 227 101 167 204 156 199 167 110 213 149 77  197 158 10  172 168 76  203 134 123 222 100 141 218 106 136 216 95  114 228 141 87  226 193 100 210 157 91  224 73  89  224 149 104 200 179 83  195 138 38  196 65  58  189 98  106 209 132 160 234 123 203 225 128 155 224 139 117 234 140 133 214 166 162 200 175 189 209 141 192 221 108 150 228 126 164 205 131 157 201 147 123 197 145 116 233 115 157 223 76  159 195 
157 139 227 76  81  212 111 110 208 174 154 228 144 162 230 123 161 222 131 160 224 127 183 221 126 222 200 157 223 201 172 181 214 127 178 207 166 145 207 161 137 215 107 132 221 50  136 224 107 150 223 156 147 211 154 126 198 103 137 219 84  119 212 87  92  210 94  169 172 95  202 168 134 188 221 194 145 235 233 97  170 230 102 169 203 157 224 131 157 232 87  104 196 198 66  172 175 71  195 113 99  218 136 130 218 97  144 212 89  117 206 129 42  177 166 43  180 131 92  207 143 132 207 150 113 202 133 98  203 119 133 212 128 137 231 154 130 231 115 182 224 100 187 229 167 160 228 186 182 218 153 168 220 133 108 227 157 124 218 146 197 208 111 188 219 109 156 210 143 136 199 139 104 209 100 74  212 65  114 192 
99  129 224 104 142 204 143 148 212 180 138 221 145 137 230 112 122 216 129 114 211 145 152 216 133 190 210 103 174 211 131 109 218 153 142 221 125 140 224 144 88  227 132 144 212 105 202 211 109 190 228 120 105 228 130 88  215 131 140 217 107 185 189 96  124 209 114 139 222 129 221 192 130 255 173 149 243 193 195 197 190 230 114 176 237 130 206 133 156 212 113 203 202 168 154 195 146 62  192 140 48  202 167 82  215 100 88  211 44  99  197 66  104 167 195 137 152 198 137 192 166 131 223 151 152 212 147 159 208 118 132 220 107 114 200 185 141 212 123 174 225 92  164 224 130 148 236 155 113 229 134 102 224 140 137 214 184 164 198 176 168 209 110 192 221 137 220 211 140 216 212 115 164 210 94  130 209 84  145 198 
125 182 204 166 223 232 127 190 209 140 146 216 118 120 240 118 117 217 131 129 195 123 121 210 94  79  221 65  81  210 117 93  209 170 102 217 129 121 233 140 138 235 178 155 215 157 183 195 94  205 200 114 196 216 129 160 217 151 123 214 100 126 200 42  92  181 126 62  209 125 73  220 119 140 202 148 215 187 164 249 194 205 191 188 220 178 196 156 163 217 180 232 207 153 234 214 103 179 200 140 100 198 164 70  219 89  97  216 99  151 209 163 246 192 214 249 191 156 192 203 160 131 209 177 124 217 150 142 230 116 158 227 150 185 198 190 193 213 111 173 237 61  109 212 139 95  219 136 116 222 149 118 215 171 120 207 172 120 208 171 87  213 126 122 210 97  107 199 97  82  189 76  95  211 93  120 227 91  136 208 
111 168 202 118 151 228 121 136 219 139 182 229 117 186 228 98  144 219 118 102 219 118 92  223 61  65  210 83  36  185 137 88  206 160 86  218 151 90  221 136 112 212 166 110 214 149 108 211 76  137 200 103 166 203 122 158 218 123 149 217 62  101 208 48  105 177 117 117 189 112 90  215 138 61  217 175 105 208 166 145 211 182 149 196 204 143 192 166 171 229 181 183 220 140 185 219 83  170 207 98  125 198 157 81  208 193 132 217 154 181 213 170 209 204 155 179 208 178 171 198 168 209 200 142 190 222 126 120 235 144 106 224 181 164 212 161 191 229 90  150 233 48  117 201 144 81  210 169 113 201 178 176 195 164 185 205 129 124 210 134 56  201 119 89  214 87  120 193 64  40  181 154 58  197 145 106 218 92  115 220 
82  132 215 59  88  211 143 67  216 174 132 224 121 148 222 75  152 220 101 129 226 98  83  221 33  65  189 93  32  167 204 76  192 182 143 226 141 154 216 90  97  179 155 33  177 165 71  208 103 103 226 91  114 221 124 118 204 144 141 216 114 182 213 105 191 174 106 179 188 145 203 221 150 201 222 135 133 200 162 51  193 172 121 195 213 105 183 201 168 211 155 146 222 105 108 224 89  151 217 93  182 208 149 154 207 208 93  213 159 127 218 166 126 209 149 149 200 186 155 215 177 183 225 133 199 227 100 172 215 153 137 201 205 172 217 118 156 244 55  98  229 59  142 199 148 179 202 200 173 197 192 163 207 139 164 221 109 162 219 138 157 217 147 141 224 114 153 213 107 209 202 135 165 194 152 104 202 135 142 217 
93  103 221 43  109 205 148 91  196 198 113 216 133 110 225 99  141 221 110 160 215 78  133 203 18  80  185 94  108 187 232 106 176 217 135 202 150 166 210 91  177 184 117 125 173 164 59  188 159 97  214 94  128 233 140 148 222 160 158 224 143 169 226 117 182 193 111 221 188 149 232 212 154 224 219 142 215 196 172 210 175 181 213 187 202 190 198 192 148 211 130 125 219 111 129 229 113 159 227 91  174 217 119 164 212 176 142 214 150 93  213 195 91  202 176 142 202 166 137 226 185 126 232 154 154 230 100 178 219 150 171 207 196 153 218 114 170 242 117 202 229 116 215 200 144 218 192 174 187 215 175 138 225 139 123 223 97  144 223 117 144 216 117 104 201 131 96  200 142 163 212 114 173 212 140 165 209 142 154 217 
118 90  232 100 162 212 149 187 193 193 145 222 136 129 224 103 125 212 103 133 199 70  134 189 68  140 187 132 200 198 219 195 190 201 103 190 165 114 200 117 166 199 78  176 204 149 144 193 177 107 189 110 125 223 130 138 234 137 135 224 143 124 216 136 171 213 123 212 201 125 208 197 155 206 206 183 230 203 187 242 184 174 237 200 159 221 219 143 125 224 158 123 222 140 164 227 104 152 227 77  131 221 121 167 220 169 197 221 135 153 201 212 137 185 200 147 208 149 131 232 171 104 229 159 105 226 104 135 228 121 140 221 174 105 208 167 157 214 135 203 219 117 197 204 117 180 208 128 157 235 151 136 236 138 120 222 82  109 219 86  111 213 90  111 192 153 129 182 169 106 218 148 164 227 127 183 222 115 146 220 
133 124 237 132 172 218 131 200 211 150 132 225 124 120 210 91  114 201 74  97  202 74  116 201 115 175 200 171 232 200 164 212 215 126 87  209 153 0   194 134 0   195 113 158 218 141 179 220 153 123 205 104 72  207 88  27  207 138 48  211 171 120 194 152 171 211 114 152 214 107 155 205 142 176 203 183 179 204 200 177 202 154 184 222 124 196 225 98  137 221 177 121 220 136 133 214 57  97  214 98  111 216 157 175 224 173 187 232 133 170 203 193 159 186 190 139 207 134 115 222 146 96  217 144 89  210 106 80  215 107 86  220 155 109 208 172 75  190 114 64  194 98  58  210 93  80  226 119 107 227 138 123 225 120 116 221 78  104 217 110 132 219 136 173 214 156 189 202 177 164 224 172 167 226 116 157 225 86  136 222 
139 161 219 119 109 212 83  64  222 80  77  212 111 58  197 113 102 210 86  135 222 87  146 220 144 161 221 178 177 218 58  111 213 47  66  210 113 52  203 153 35  189 166 80  205 151 121 233 110 120 234 57  67  201 83  70  178 192 96  202 215 101 204 142 86  199 91  105 213 109 113 230 107 101 221 148 94  197 211 118 207 167 147 225 141 177 225 104 184 204 140 141 204 96  72  198 73  58  203 142 121 209 166 144 220 130 113 237 154 112 219 155 132 215 124 68  207 107 80  194 156 84  192 145 68  197 125 82  205 148 123 217 126 136 225 64  47  206 114 32  187 139 45  213 118 70  215 115 82  201 124 73  200 109 63  212 105 93  219 155 142 217 158 174 217 113 148 228 154 120 223 164 132 215 117 153 223 90  156 226 
118 108 216 91  53  201 137 109 222 95  146 222 104 119 221 125 67  217 110 78  223 107 125 221 153 145 208 165 140 221 75  152 188 75  139 202 95  110 236 149 81  201 208 100 188 184 124 226 65  116 235 74  99  199 116 141 214 192 150 204 201 109 216 159 78  223 122 150 234 90  140 232 95  86  213 160 79  195 212 109 196 196 153 210 151 132 235 134 214 204 112 223 200 91  178 200 125 156 209 150 139 219 140 101 221 128 119 225 149 119 232 118 76  229 106 90  213 144 150 211 166 146 208 154 111 218 149 96  227 149 91  219 98  31  208 67  72  221 99  76  221 165 64  207 139 111 213 111 119 229 108 95  228 122 67  210 158 103 204 190 154 218 130 141 214 91  104 226 127 83  217 180 97  202 151 171 219 101 202 225 
62  85  202 128 120 188 174 157 219 115 149 227 70  127 222 70  74  199 143 70  209 171 133 227 142 157 209 162 142 207 136 208 207 116 227 185 75  173 235 146 139 230 222 135 201 198 145 209 65  158 221 102 163 196 161 153 206 175 155 214 189 145 220 167 115 244 123 104 241 77  122 204 124 122 190 182 105 208 203 105 199 209 115 194 136 126 228 147 101 195 107 164 202 114 227 211 98  195 198 107 95  190 158 94  213 170 152 235 127 150 234 131 162 223 157 161 217 169 156 219 132 152 234 117 122 236 138 93  226 128 96  217 79  68  212 101 49  215 87  53  200 186 104 204 169 99  210 117 92  211 78  107 214 120 114 205 179 106 195 197 107 217 95  82  225 79  63  208 90  43  205 179 53  187 182 85  190 125 126 209 
85  127 213 172 160 206 159 148 222 102 152 230 58  133 211 48  103 186 178 92  198 216 114 222 155 163 219 184 214 206 147 202 227 105 199 182 80  190 192 146 165 218 219 141 212 195 105 217 77  110 227 100 166 205 117 158 194 196 99  194 170 145 222 124 113 232 150 116 227 139 167 203 111 183 205 129 141 232 175 55  223 228 73  176 138 132 197 112 74  191 142 54  188 101 86  211 44  128 208 109 133 187 170 113 193 189 122 219 146 142 228 172 182 227 156 179 232 150 154 230 106 146 230 119 157 227 155 156 225 140 140 224 70  133 220 106 116 220 149 162 214 169 133 234 105 63  211 112 0   183 146 96  182 163 172 200 166 192 216 133 116 222 53  0   215 79  40  219 109 84  210 159 94  197 180 66  192 168 48  199 
139 199 220 133 142 220 121 84  230 100 112 230 89  170 207 103 209 186 161 192 199 200 145 214 201 155 208 198 179 227 130 162 233 85  166 199 89  202 178 150 215 188 192 183 212 156 124 221 101 107 208 167 171 193 138 233 196 172 207 192 150 136 213 128 141 201 179 148 206 153 150 220 84  160 224 97  159 225 148 121 229 219 85  193 214 104 178 117 181 211 69  121 178 165 47  187 140 121 204 107 174 200 177 186 193 195 175 203 136 141 221 155 103 234 164 119 222 155 157 230 125 175 240 118 167 233 128 132 223 114 104 225 84  140 230 111 161 222 174 177 220 105 119 214 37  78  214 108 75  218 193 73  197 223 106 190 183 146 215 83  154 215 91  178 198 149 206 211 157 214 217 121 150 213 116 60  209 192 58  194 
124 194 217 68  94  191 125 51  206 162 114 227 139 180 224 120 221 211 153 235 201 192 227 202 193 196 213 128 116 225 122 80  212 114 126 222 98  181 208 139 227 201 152 216 211 134 194 215 152 194 205 193 190 202 158 208 217 133 222 208 118 158 216 131 125 197 167 110 201 158 126 224 131 180 226 132 223 213 149 224 217 175 185 219 216 76  196 175 130 204 113 211 188 157 217 184 135 177 202 127 166 212 180 182 210 166 149 215 87  116 225 132 101 226 176 98  214 174 108 222 137 137 233 91  130 223 76  85  209 105 43  219 135 94  234 158 162 215 164 183 224 100 172 205 105 205 203 133 202 226 160 156 218 194 86  193 200 80  199 149 149 221 158 207 210 151 208 199 134 214 213 86  167 205 118 150 198 185 136 197 
88  147 211 72  157 172 137 116 187 213 120 217 169 158 226 129 195 233 151 210 228 169 198 223 145 164 226 61  132 211 151 149 204 123 126 228 70  111 207 157 152 209 153 187 221 116 194 224 136 171 214 171 139 202 180 149 216 93  172 224 78  145 220 97  97  210 145 62  194 178 111 207 167 157 226 134 183 227 142 199 220 143 203 229 176 165 220 177 64  207 162 156 199 134 196 198 99  182 205 134 167 216 172 165 222 144 139 222 116 168 221 153 206 219 145 148 226 150 83  224 134 74  219 88  95  209 73  124 207 120 137 216 160 120 217 199 142 210 150 165 228 132 178 222 122 211 202 122 210 216 138 182 224 181 160 209 207 158 200 181 157 225 156 167 228 126 137 222 111 149 216 107 189 215 129 208 208 146 167 216 
160 121 209 94  198 191 130 185 183 196 130 206 157 106 213 127 131 222 138 134 230 140 102 234 128 104 230 126 168 215 140 174 215 93  120 220 71  123 186 178 128 193 171 156 224 104 151 233 91  117 215 147 121 198 185 126 206 85  111 217 81  144 214 72  138 213 152 134 186 191 145 195 173 144 224 132 134 232 145 152 227 147 183 233 149 192 235 138 144 229 170 92  212 152 101 217 108 155 220 124 185 217 165 179 219 167 171 221 161 213 220 153 231 219 95  181 218 120 123 223 137 94  221 130 143 216 139 200 212 159 225 206 161 211 199 187 182 213 156 158 234 144 167 237 123 174 212 107 197 209 132 194 218 188 179 213 212 174 207 167 154 222 129 134 231 104 102 239 139 116 221 129 186 230 107 191 224 94  144 222 
203 122 211 115 166 218 105 198 195 106 136 203 99  46  201 138 0   197 149 59  206 137 86  218 152 115 225 156 154 233 71  111 213 115 107 212 138 186 194 167 193 190 151 157 219 105 124 230 98  141 215 142 159 209 162 127 210 132 109 203 101 149 210 89  176 211 177 180 197 196 175 206 168 182 220 147 191 223 154 184 228 146 172 236 135 147 233 128 176 236 155 161 228 160 105 235 136 133 233 130 186 221 164 198 217 186 192 224 173 209 227 121 183 221 106 190 196 122 176 207 146 154 224 160 178 234 180 214 224 185 231 200 146 234 201 129 221 219 153 173 234 131 159 238 119 143 222 111 177 211 111 193 214 169 164 213 204 115 206 147 115 217 134 139 225 113 156 230 159 160 227 117 149 228 58  108 215 67  78  206 
151 72  211 146 56  224 98  119 223 44  122 207 49  99  190 175 110 201 185 113 210 146 106 206 167 119 218 130 111 238 73  121 198 177 150 210 175 175 220 122 161 220 85  125 222 103 129 225 117 143 226 116 110 225 137 108 221 168 119 218 87  89  222 88  151 219 189 157 218 212 157 215 180 186 220 143 202 231 138 175 237 124 166 234 92  124 217 160 144 214 140 149 236 130 131 240 141 128 231 155 158 224 164 187 226 166 189 228 153 159 233 124 137 220 132 180 207 111 202 191 138 185 208 157 159 238 167 129 242 171 103 219 146 141 211 113 187 227 112 168 228 104 130 235 83  89  225 97  0   208 119 132 219 145 164 227 166 111 214 162 78  214 152 94  219 141 157 216 133 160 230 84  109 219 45  100 202 77  105 193 
101 57  205 138 47  196 150 70  227 84  128 211 115 178 181 185 198 205 163 162 216 146 102 197 208 120 204 121 145 233 127 213 215 151 178 218 138 103 223 117 96  229 100 124 227 111 132 225 113 122 226 102 111 222 156 116 224 137 107 234 81  71  222 95  81  219 185 118 215 222 131 201 190 130 211 122 133 238 125 142 242 118 148 229 124 187 228 149 178 219 120 144 218 162 157 228 158 157 231 152 140 221 170 152 215 139 164 225 86  52  233 153 110 211 125 131 212 94  126 211 117 167 214 122 156 232 100 92  234 132 23  216 185 56  217 131 99  238 92  139 228 96  136 232 76  137 217 103 103 201 151 63  214 157 85  232 139 114 231 160 100 220 149 67  204 140 61  202 91  44  203 83  56  217 94  155 222 93  189 204 
84  26  175 173 76  200 185 97  226 127 118 217 151 209 197 141 191 213 104 156 210 158 153 189 214 109 206 172 108 223 142 166 225 102 179 213 96  126 216 139 114 229 127 136 220 82  117 209 79  60  213 121 85  216 156 116 217 125 114 231 62  98  219 131 76  209 206 137 211 201 131 209 168 92  209 156 104 223 134 141 240 128 161 239 145 167 233 142 161 229 119 168 229 136 143 229 148 125 227 169 135 217 173 137 206 104 112 206 95  94  183 225 134 200 131 168 206 82  123 219 85  85  222 84  86  217 80  90  214 127 87  214 179 89  208 148 92  215 138 115 230 121 154 230 82  150 204 75  147 213 150 125 224 178 104 227 148 105 231 126 87  225 129 89  220 110 74  224 117 55  208 152 116 218 122 138 237 98  166 223 
140 59  184 230 133 182 157 101 222 161 94  225 156 139 229 126 139 237 110 149 229 134 171 220 164 158 230 181 105 230 155 93  222 104 126 211 96  162 214 115 135 219 94  94  206 44  83  202 67  72  223 146 52  232 209 118 202 130 146 206 59  123 225 181 169 216 214 176 207 193 180 215 153 158 223 137 104 219 151 113 215 165 157 230 129 166 235 117 147 224 107 125 232 104 118 241 136 110 219 167 108 204 174 121 219 160 168 217 158 243 191 162 142 215 117 96  212 51  97  193 118 96  209 156 157 224 149 201 219 142 197 213 161 158 221 129 108 220 123 82  223 96  71  230 86  113 212 118 207 207 157 232 214 163 196 226 136 140 238 132 138 238 165 172 227 105 148 230 127 148 237 161 130 230 136 108 236 120 128 238 
236 186 197 232 185 191 139 169 229 153 153 236 167 137 228 123 107 222 108 93  222 148 138 223 152 177 226 139 158 239 135 113 232 117 87  213 96  99  212 83  95  225 98  97  223 102 149 210 100 195 209 157 199 218 226 167 204 103 115 200 81  130 212 205 184 211 225 189 203 183 183 220 113 156 235 103 112 225 164 110 209 204 137 219 144 169 243 119 184 227 104 162 217 146 157 228 149 167 220 161 180 204 188 185 205 171 175 216 127 163 224 98  162 214 82  91  213 88  119 200 146 175 209 174 179 223 156 183 224 109 180 218 89  77  219 91  31  213 107 0   217 168 110 220 181 177 228 157 200 211 132 208 203 116 191 221 109 142 234 141 128 225 186 159 224 125 185 228 130 186 236 108 125 237 110 66  213 152 121 215 
206 210 194 210 141 202 165 156 224 144 171 229 128 149 214 77  100 198 126 35  208 186 67  216 177 125 203 128 144 222 116 133 237 100 98  227 79  94  216 72  62  219 117 91  224 145 130 222 152 180 209 162 222 199 166 188 219 125 138 212 168 228 196 194 222 203 194 176 212 151 128 233 101 128 238 116 151 226 159 146 218 201 112 209 165 146 236 116 146 239 99  159 211 149 162 214 155 158 232 170 159 227 190 168 205 149 168 211 89  124 229 105 151 223 74  145 193 113 114 194 161 157 214 181 181 224 152 174 219 76  143 204 49  88  192 117 115 216 178 164 212 214 170 214 169 149 230 124 123 223 126 133 226 116 151 234 98  154 222 155 160 207 192 171 228 124 162 243 98  147 230 12  76  224 125 80  199 197 145 197 
126 172 208 147 73  200 180 86  199 140 113 209 103 103 211 107 144 197 148 182 201 174 164 216 171 83  216 154 93  219 94  107 211 90  90  214 108 126 223 134 194 219 140 195 216 137 148 223 159 127 221 176 164 206 107 175 222 151 178 221 188 213 205 168 199 214 149 166 228 136 143 237 127 149 233 116 153 223 132 125 222 194 96  209 174 107 220 118 107 246 124 153 223 117 153 213 158 134 228 186 117 230 176 115 211 149 136 203 94  171 216 96  131 222 76  147 200 136 170 200 176 164 215 170 167 229 126 155 225 87  147 204 111 200 187 155 223 197 188 227 199 192 181 219 123 118 225 112 121 225 127 122 226 115 112 223 120 136 216 159 157 216 157 131 222 101 109 243 88  127 237 80  177 213 148 173 195 191 141 199 
55  90  214 58  48  199 191 104 183 161 100 201 118 63  219 156 132 206 165 191 197 127 184 213 126 97  225 151 54  220 99  80  197 105 101 196 155 137 214 157 202 218 130 199 217 111 170 221 146 146 226 175 111 226 125 140 229 151 175 223 166 138 224 148 129 225 126 137 226 136 153 230 136 154 231 106 138 227 111 125 221 179 120 218 177 89  213 129 108 237 143 130 233 99  136 218 147 126 216 176 105 224 151 74  219 147 83  196 134 160 205 79  158 218 94  156 210 132 181 212 164 161 216 152 144 228 120 147 232 119 171 224 143 219 213 167 233 198 141 213 195 146 169 216 128 183 222 135 188 228 119 164 216 100 129 202 122 112 211 130 99  224 110 0   212 143 71  226 143 155 243 130 210 219 127 186 201 133 104 200 
57  0   195 135 110 203 194 159 198 186 148 208 127 126 222 150 75  211 155 55  195 94  89  192 78  82  191 134 56  195 142 83  208 135 123 210 165 126 198 131 76  202 120 89  221 143 167 227 151 198 224 144 161 229 140 105 231 155 129 222 139 112 230 130 92  225 125 81  215 131 91  219 132 102 228 120 126 228 118 158 219 144 149 223 175 104 217 134 102 223 136 78  231 128 112 226 131 130 219 137 114 223 130 89  224 138 86  207 182 90  206 133 181 215 111 182 203 90  136 211 134 119 216 157 133 220 146 154 230 129 166 238 141 156 230 156 149 224 102 140 207 128 159 207 154 211 225 139 207 234 108 180 223 95  158 206 92  132 203 79  88  211 132 114 213 200 121 208 177 156 238 128 146 231 63  127 207 61  104 194 
109 145 182 204 182 205 158 138 217 191 105 209 148 161 215 96  152 218 92  89  197 86  0   166 89  0   161 153 39  170 189 60  191 159 94  227 123 85  200 130 108 184 174 138 218 189 176 239 159 199 230 111 183 214 130 140 204 168 108 217 113 72  220 118 95  226 126 96  223 133 80  217 136 60  215 138 80  217 138 124 216 127 144 221 155 117 222 130 101 221 119 94  221 159 112 230 151 141 229 120 147 219 128 141 221 161 147 232 211 114 214 179 138 202 100 162 208 50  142 207 139 137 211 170 134 219 151 125 227 115 122 228 116 116 223 132 64  220 140 81  210 104 131 213 145 127 226 136 172 230 106 177 230 88  159 223 84  169 208 110 187 203 174 212 219 199 171 206 163 112 236 101 92  233 81  137 213 87  170 201 
168 252 203 147 192 218 100 117 223 202 115 203 194 160 219 136 189 224 64  161 193 35  78  174 72  53  211 135 63  220 223 92  168 141 72  202 106 25  195 202 165 188 202 199 218 156 161 239 134 95  234 133 148 221 146 211 208 93  154 219 84  113 206 160 109 210 138 137 232 127 146 233 121 121 227 127 75  223 174 76  215 158 111 227 131 137 230 134 129 232 119 133 223 174 133 205 181 159 210 149 189 224 129 194 225 145 169 221 180 139 219 149 77  205 89  58  225 78  148 223 123 154 217 137 113 223 136 80  220 123 90  202 70  78  204 89  52  205 167 72  208 112 51  216 155 75  206 157 116 226 116 144 234 82  161 228 114 194 226 153 242 217 160 237 200 138 162 231 149 131 241 132 164 234 121 184 235 112 202 217 
131 161 231 83  130 225 144 200 230 198 163 213 190 118 215 118 91  218 35  127 188 70  153 175 90  145 227 162 160 245 242 180 180 137 157 184 120 157 183 220 144 181 181 115 209 93  95  228 137 96  233 152 87  236 117 65  220 103 124 210 129 223 220 132 167 215 147 125 221 133 139 227 104 161 240 125 161 242 171 134 218 186 116 220 145 153 233 149 144 237 155 175 233 147 152 218 141 109 202 154 93  199 150 106 209 105 114 213 125 100 202 112 98  215 119 72  213 115 126 224 134 189 226 130 186 221 120 138 217 117 93  208 89  89  188 113 123 193 140 120 241 111 83  228 184 101 206 185 106 222 124 100 234 65  103 230 123 131 226 165 176 230 145 213 224 125 209 214 140 167 212 108 123 209 96  98  222 138 138 229 
103 127 228 119 129 227 147 165 231 125 134 225 122 71  200 108 0   194 79  75  202 85  178 202 142 247 195 203 245 192 229 221 183 166 207 208 157 205 193 170 126 208 136 27  213 141 106 214 167 145 225 117 129 225 78  81  189 161 80  179 169 152 220 147 218 212 92  151 201 102 37  202 143 117 218 152 171 234 147 169 234 168 139 218 159 132 230 148 133 238 154 138 236 126 126 244 124 128 226 141 129 202 130 105 208 101 65  219 121 59  205 157 87  197 129 133 204 160 151 231 153 162 227 117 161 208 104 163 211 123 166 221 128 158 206 124 173 213 62  73  201 115 34  191 208 93  202 187 81  207 105 65  211 47  78  214 118 86  207 169 93  197 191 133 204 142 207 225 110 198 208 94  159 199 122 167 212 147 160 224 
136 148 209 125 189 229 146 138 234 96  123 234 79  122 224 110 115 205 131 118 201 141 176 207 165 237 197 194 235 185 180 168 219 148 133 237 136 125 210 128 122 219 141 128 226 181 138 218 182 143 213 103 148 215 97  174 204 176 172 207 192 129 219 123 120 214 10  108 193 113 90  200 181 92  212 186 136 217 140 177 230 162 165 219 157 148 226 123 132 235 136 95  225 136 104 224 143 118 220 149 134 227 135 154 233 109 151 209 135 125 206 203 155 210 123 132 223 131 98  241 135 77  233 117 99  217 104 126 218 119 149 231 137 169 233 103 147 215 53  126 171 165 129 168 182 97  202 150 31  203 100 1   193 75  53  196 121 80  208 185 105 210 204 86  190 177 134 228 130 193 224 137 237 210 141 242 214 128 206 216 
181 112 214 107 152 236 105 111 221 122 96  210 130 165 221 134 196 217 140 195 200 152 189 201 165 187 220 159 172 229 129 128 231 125 87  218 124 86  213 139 119 208 157 147 217 162 132 224 149 88  218 130 116 213 140 174 223 167 196 228 140 133 220 96  79  216 123 162 208 127 192 211 164 148 206 200 83  201 174 135 220 143 148 233 158 147 227 97  127 227 105 89  226 131 78  217 163 103 211 170 135 227 134 144 236 97  125 211 160 138 207 211 155 209 148 204 217 116 175 215 116 114 217 119 86  223 120 110 228 136 132 236 151 143 245 87  125 218 88  182 187 153 194 203 154 161 223 120 148 215 101 113 198 89  48  188 115 58  190 192 80  198 209 98  194 207 102 202 160 156 232 123 187 234 103 182 223 80  154 211 
193 75  205 148 79  233 60  96  214 124 64  178 168 137 197 168 184 227 146 197 221 130 181 208 129 140 230 121 101 233 110 99  217 135 120 216 131 110 215 138 104 196 149 111 203 120 84  216 130 10  206 198 93  199 176 154 227 124 154 234 97  109 230 108 132 220 145 159 223 119 174 220 134 171 209 187 143 205 178 96  219 131 103 231 150 107 218 78  90  213 80  80  215 129 73  224 175 98  217 173 113 208 128 106 215 121 122 225 168 170 228 190 117 203 176 176 192 119 204 207 97  179 208 112 135 212 137 125 224 156 140 236 142 136 240 83  130 222 83  162 198 97  155 216 152 128 226 120 146 214 94  156 208 105 155 210 126 157 200 184 142 180 220 128 200 192 104 196 165 97  213 92  83  229 38  62  216 49  58  200 
169 147 186 177 123 217 64  120 211 102 101 166 195 101 180 198 122 225 152 149 228 110 161 215 94  145 225 92  104 210 118 59  192 157 114 222 119 90  213 136 76  200 150 86  210 116 109 208 145 123 184 223 122 185 189 135 220 86  132 232 110 117 235 122 131 229 124 110 229 108 108 227 125 151 219 154 157 218 146 79  227 138 77  228 123 69  215 63  43  196 73  50  194 143 67  208 181 86  209 169 85  204 145 96  212 167 142 229 141 160 234 148 101 213 206 67  181 146 154 213 107 203 223 111 199 213 142 170 214 163 164 229 139 174 233 90  158 225 85  140 189 41  97  186 141 13  205 156 66  206 139 156 213 125 199 231 136 198 226 171 172 187 206 123 201 154 97  224 136 42  197 112 1   210 79  72  209 56  86  193 
156 186 190 160 175 211 90  167 206 130 189 174 200 169 189 189 120 211 152 110 213 137 149 214 106 169 222 83  157 201 125 134 184 162 119 204 85  102 209 162 109 212 186 134 221 158 167 213 158 183 190 199 160 191 181 114 216 121 151 229 113 174 230 115 142 236 110 124 236 119 128 235 127 128 227 125 117 220 130 107 229 147 108 236 81  89  222 46  63  186 66  33  190 141 32  178 189 67  177 190 95  206 173 113 227 173 112 217 106 75  210 143 133 222 204 102 210 168 47  205 144 171 223 124 212 224 129 202 217 158 190 227 152 192 238 99  181 219 109 174 191 96  180 165 122 167 184 176 139 204 176 145 215 133 165 227 119 164 234 160 146 216 172 106 202 130 94  232 95  64  202 155 55  208 132 101 218 73  138 207 
185 157 207 134 163 230 128 196 215 181 246 196 157 216 211 111 150 211 152 105 208 175 127 220 115 163 226 100 187 206 135 220 197 150 195 196 94  182 214 182 184 211 209 179 209 186 171 218 170 176 218 179 172 208 157 107 216 155 92  221 140 191 224 116 202 231 114 166 238 126 142 241 130 147 231 135 160 214 152 165 217 139 131 232 56  96  216 40  88  190 49  78  211 111 72  198 202 90  172 221 111 184 163 101 206 114 37  194 159 67  194 198 152 208 135 147 248 144 92  212 160 33  187 144 108 204 129 177 227 139 192 241 136 145 242 103 162 208 110 170 216 137 218 202 136 247 187 134 226 199 134 150 208 119 44  207 111 94  219 153 136 236 174 133 207 102 98  202 103 100 197 165 88  207 147 57  218 107 135 221 
156 186 212 150 129 223 165 158 228 149 170 236 111 147 230 69  124 213 143 107 206 179 112 207 130 142 210 108 161 221 154 217 208 135 215 207 117 187 200 173 210 192 176 205 203 161 172 223 166 140 230 153 113 218 88  90  210 157 86  199 201 107 216 129 167 208 86  171 221 115 148 234 153 156 228 157 174 214 106 146 219 89  103 229 73  122 199 72  143 198 77  149 224 141 151 227 212 124 205 193 68  179 53  0   159 127 47  152 234 107 188 206 109 198 134 115 242 75  121 240 125 86  202 192 58  184 181 105 213 73  121 236 68  40  221 117 44  204 104 109 208 101 117 207 111 138 199 89  150 195 19  115 190 95  38  179 167 59  184 183 107 212 152 120 207 105 112 207 95  116 209 99  82  199 110 39  185 131 3   193 
145 170 201 106 202 224 133 108 232 111 58  216 61  22  189 93  41  185 169 127 196 195 169 210 158 173 222 138 197 222 142 168 220 62  108 214 88  83  209 168 102 202 155 91  204 149 122 215 169 173 224 141 188 219 135 181 203 150 199 204 152 103 214 130 78  216 100 125 224 136 171 225 150 165 228 110 115 231 71  102 224 112 122 228 148 168 232 136 240 196 114 225 191 110 171 229 156 101 231 142 31  195 60  26  160 151 66  159 233 102 171 203 84  188 168 96  217 108 112 243 131 158 236 179 150 222 161 98  209 41  50  192 75  19  183 181 58  197 147 85  219 89  134 213 96  100 211 80  74  216 82  163 200 81  173 176 127 66  176 207 38  183 181 77  193 129 101 219 83  86  231 37  73  203 67  44  160 167 37  155 
154 84  212 101 128 230 106 132 216 66  89  197 62  95  202 191 143 194 230 189 190 199 213 217 143 194 236 79  104 192 86  54  187 115 111 187 117 189 205 99  120 217 148 0   191 198 108 183 185 149 213 115 131 222 163 123 200 117 135 204 80  101 210 138 55  218 155 94  223 143 138 223 127 141 232 125 150 239 126 194 227 114 191 220 115 120 234 160 123 214 127 205 179 124 244 191 121 206 213 81  123 212 92  90  203 184 109 199 233 81  160 213 74  174 173 96  197 109 101 236 143 114 221 169 113 218 136 94  225 51  101 203 117 146 177 212 164 212 173 190 244 128 196 234 75  136 200 111 122 215 120 170 218 104 212 196 132 218 182 194 171 187 233 134 196 121 123 225 81  109 234 47  101 194 45  87  175 154 52  188 
160 155 228 168 125 233 92  138 212 19  94  182 107 92  184 206 115 184 232 134 188 185 141 217 92  132 231 60  114 169 135 167 168 211 204 194 142 206 184 20  140 200 174 97  204 233 115 193 195 121 207 72  110 235 126 76  212 146 99  223 72  131 208 123 99  177 168 86  194 148 100 224 131 124 235 152 142 233 138 146 231 91  148 221 87  149 219 132 95  223 156 114 215 123 174 190 80  169 175 51  125 193 83  97  222 158 83  224 214 64  160 223 84  160 208 95  179 154 147 232 123 152 231 117 114 213 118 58  203 120 89  197 122 140 195 157 125 207 162 120 210 122 126 222 106 190 204 123 209 196 120 187 210 106 183 210 123 219 195 160 227 204 178 145 229 129 96  233 102 127 222 58  115 178 78  150 197 146 170 225 
127 115 217 155 85  217 76  91  197 21  95  171 96  71  199 202 62  188 225 71  174 179 81  203 128 117 226 125 168 208 135 191 201 185 188 216 157 185 186 106 218 180 165 209 192 227 159 194 210 126 214 81  137 246 88  112 222 161 82  219 132 146 199 118 180 186 144 132 213 165 79  231 162 111 231 144 133 230 124 111 235 98  115 233 106 161 229 109 153 231 152 129 240 110 123 208 48  117 171 42  109 179 60  91  214 128 45  226 215 83  181 236 109 161 210 70  173 178 97  196 131 118 212 83  116 218 112 110 208 145 119 195 118 124 201 90  73  211 151 8   191 161 61  204 160 153 223 134 204 216 120 218 207 112 201 204 106 188 206 130 202 221 120 164 229 120 107 225 103 105 211 69  137 185 141 213 193 172 243 201 
108 123 202 121 97  206 81  69  202 63  142 185 109 181 210 203 175 193 225 143 173 190 118 195 160 130 224 137 155 240 129 168 228 158 160 226 165 148 216 134 210 196 137 234 182 179 203 195 181 149 223 109 140 236 84  140 214 171 125 200 166 147 207 115 190 222 118 175 231 157 132 226 178 122 217 158 138 222 93  120 231 89  83  223 115 114 226 114 148 227 148 163 243 103 133 212 47  117 178 55  124 176 58  121 203 131 120 227 233 149 187 215 134 175 176 63  198 198 70  173 167 85  193 106 108 217 107 122 215 131 110 201 88  71  203 66  43  218 180 96  202 189 111 197 181 110 226 140 143 236 113 172 220 113 194 202 118 215 205 136 223 216 122 209 207 121 178 206 126 163 210 126 203 200 167 240 198 183 243 188 
119 178 212 119 174 208 117 165 215 103 201 196 151 245 191 198 237 192 214 197 191 193 165 198 148 144 221 134 120 238 147 156 230 151 157 232 150 108 231 153 136 218 135 205 204 121 212 209 127 163 221 117 135 221 90  148 211 165 152 199 185 149 218 127 174 235 114 193 231 143 186 220 173 166 212 161 149 213 58  125 217 75  68  202 113 38  211 150 117 219 142 148 236 92  132 214 74  157 184 79  167 177 83  154 202 160 180 225 243 188 175 191 166 187 166 185 212 194 153 185 178 109 204 145 130 222 124 153 220 100 130 209 71  94  199 115 138 207 210 177 204 191 165 204 162 120 218 123 66  230 112 53  227 130 139 210 137 203 198 130 218 209 139 216 205 131 226 199 133 204 209 138 207 213 138 194 213 169 168 206 
136 170 230 143 208 210 139 218 223 137 222 197 169 242 182 172 225 203 183 192 210 176 173 205 118 152 218 139 131 217 157 150 224 118 135 237 130 113 220 177 115 218 155 163 218 106 180 213 102 157 209 99  133 215 93  134 224 134 132 225 188 132 213 153 159 223 124 180 233 137 191 233 154 175 224 136 143 213 78  142 204 94  148 204 124 138 210 179 135 216 136 124 226 94  150 221 96  188 196 89  189 179 110 182 194 188 211 206 239 192 171 202 182 189 192 240 199 160 203 205 152 147 222 164 151 233 148 174 230 103 173 215 115 181 197 157 210 191 208 212 202 173 174 223 109 111 214 77  44  201 133 56  215 160 82  218 139 88  198 109 113 211 129 158 226 123 202 207 98  175 209 81  117 214 60  7   204 170 51  203 
152 88  222 178 164 209 123 187 236 154 181 219 155 197 220 135 181 230 154 149 223 165 133 216 122 133 224 125 140 209 142 112 223 133 113 233 160 162 217 169 146 211 149 118 197 108 125 198 68  133 210 75  109 207 105 103 223 110 106 244 155 60  205 171 83  210 136 131 238 108 126 246 139 101 231 158 127 214 128 183 210 112 222 215 145 220 215 168 171 214 156 144 209 132 197 216 102 192 206 92  185 182 134 225 170 191 232 177 224 186 184 213 169 187 195 165 194 149 211 224 126 195 225 143 135 221 147 92  223 133 147 220 146 203 215 159 205 213 169 175 223 129 103 235 67  69  208 59  80  182 147 87  200 172 81  217 143 82  206 138 98  205 101 85  225 100 81  208 79  129 215 21  104 192 94  84  157 200 140 169 
108 107 219 193 68  200 123 132 222 140 130 228 149 135 228 127 162 232 163 170 223 184 160 218 134 168 232 152 186 232 140 184 228 118 144 235 158 123 213 144 129 222 114 98  232 90  58  231 84  91  218 107 137 199 134 171 200 102 152 222 133 126 206 186 106 207 138 64  223 126 100 230 175 160 225 187 187 221 150 197 218 124 234 200 160 225 201 126 202 210 145 164 204 137 175 217 120 193 218 136 224 196 153 254 173 150 243 170 189 192 183 218 208 199 210 178 214 173 194 219 123 207 212 112 177 208 126 125 212 128 105 217 133 97  225 143 92  241 94  84  232 79  86  197 112 101 195 104 150 209 104 120 208 153 28  198 182 93  204 146 128 222 116 130 216 140 178 200 119 189 215 89  201 188 167 207 163 205 210 168 
